<?xml version="1.0" standalone="yes"?>
<svg xmlns="http://www.w3.org/2000/svg" width="500" height="500">
<path style="fill:#010101;" d="M0 0L0 500L500 500L500 0L0 0z"/>
<path style="fill:#1c2d51;" d="M263 137L264 138L263 137z"/>
<path style="fill:#273e70;" d="M264 137L265 138L264 137z"/>
<path style="fill:#3859a1;" d="M265 137L265 138L268 138L265 137z"/>
<path style="fill:#273e70;" d="M268 137L269 138L268 137z"/>
<path style="fill:#1c2d51;" d="M269 137L270 138L269 137z"/>
<path style="fill:#3859a1;" d="M261 138L262 139L261 138z"/>
<path style="fill:#598dfe;" d="M203 320C206.299 326.068 212.418 329.206 219 330.764C242.06 336.223 258.886 319.031 268.244 300C271.29 293.805 275.746 285.986 274 279C282.846 278.676 283.711 289.29 285.576 296C286.991 301.093 290.412 308.742 289.258 314C285.905 329.268 270.068 340.926 265.65 356C264.053 361.448 267.599 367.791 273.907 365.137C278.257 363.307 280.522 357.797 282.8 354C286.759 347.403 290.104 339.017 296 334C297.139 342.448 301.508 366.061 314.945 358.821C320.712 355.714 319.951 349.347 318.625 344C316.311 334.67 307.617 318.408 310.168 309C313.247 297.646 324.652 285.282 331.627 276C334.622 272.014 340.213 267.207 340.713 262.004C341.484 253.98 332.317 254.661 328.004 258.228C317.384 267.014 312.497 280.633 303 290C300.153 268.874 279.476 253.047 261.093 271.105C252.545 279.502 252.584 291.709 245.84 301C242.215 305.994 234.336 315.073 227.105 312.242C217 308.287 227.153 290.453 229.333 284C239.177 254.861 250.478 226.263 260 197C262.139 200.916 264.255 204.081 269.004 204.782C273.968 205.515 280.937 201.984 283.728 208.059C285.768 212.5 281.809 218.908 280.203 223C275.645 234.613 275.055 248.68 289 253.867C307.396 260.71 324.795 248.894 333.218 233C335.977 227.794 341.766 217.9 337.397 212.228C327.373 199.217 317.617 228.122 312.907 232.957C310.379 235.552 303.281 241.642 300.068 236.562C296.578 231.046 306.223 216.905 307.482 211C308.998 203.891 304.309 198.251 304.947 192C305.295 188.59 309.106 185.766 310.867 183C314.049 178.004 315.958 171.848 316.711 166C319.839 141.69 292.622 135.819 275 143C270.666 134.741 259.587 137.549 255.916 145.004C246.847 163.419 245.539 187.606 234.558 204.847C230.999 210.435 219.521 200.774 214 200.174C200.025 198.654 185.23 202.793 177.105 215C165.309 232.721 159.728 258.853 153 279C150.16 287.504 145.361 296.8 146.174 306C148.861 336.384 185.022 336.399 203 320z"/>
<path style="fill:#3859a1;" d="M271 138L272 139L271 138z"/>
<path style="fill:#1c2d51;" d="M259 139L260 140L259 139M273 139L274 140L273 139M282 139L283 140L282 139z"/>
<path style="fill:#273e70;" d="M283 139L284 140L283 139z"/>
<path style="fill:#3859a1;" d="M284.667 139.333L285.333 139.667L284.667 139.333M292 139L292 140L295 140L292 139z"/>
<path style="fill:#273e70;" d="M295 139L296 140L295 139z"/>
<path style="fill:#1c2d51;" d="M296 139L297 140L296 139z"/>
<path style="fill:#273e70;" d="M258 140L259 141L258 140z"/>
<path style="fill:#1c2d51;" d="M274 140L275 141L274 140z"/>
<path style="fill:#273e70;" d="M280 140L281 141L280 140z"/>
<path style="fill:#3859a1;" d="M298 140L299 141L298 140z"/>
<path style="fill:#273e70;" d="M299 140L300 141L299 140z"/>
<path style="fill:#1c2d51;" d="M300 140L301 141L300 140M257 141L258 142L257 141M277 141L278 142L277 141z"/>
<path style="fill:#3859a1;" d="M278 141L279 142L278 141z"/>
<path style="fill:#273e70;" d="M302 141L303 142L302 141z"/>
<path style="fill:#3859a1;" d="M275.667 142.333L276.333 142.667L275.667 142.333M304 142L305 143L304 142M256 143L257 144L256 143z"/>
<path style="fill:#273e70;" d="M306 143L307 144L306 143z"/>
<path style="fill:#3859a1;" d="M307 144L308 145L307 144M255 145L256 146L255 145z"/>
<path style="fill:#1c2d51;" d="M309 145L310 146L309 145M310 146L311 147L310 146M254 147L255 148L254 147M311 147L312 148L311 147z"/>
<path style="fill:#3859a1;" d="M254 148L255 149L254 148z"/>
<path style="fill:#1c2d51;" d="M312 148L313 149L312 148M253 150L254 151L253 150z"/>
<path style="fill:#3859a1;" d="M313 150L314 151L313 150M253 151L254 152L253 151z"/>
<path style="fill:#1c2d51;" d="M314 151L315 152L314 151M252 153L253 154L252 153z"/>
<path style="fill:#273e70;" d="M315 153L316 154L315 153z"/>
<path style="fill:#3859a1;" d="M252 154L253 155L252 154M315 154L316 155L315 154z"/>
<path style="fill:#273e70;" d="M251 156L252 157L251 156M316 156L317 157L316 156z"/>
<path style="fill:#3859a1;" d="M251 157L252 158L251 157M285 157L286 158L285 157M316 157L317 158L316 157z"/>
<path style="fill:#273e70;" d="M281 158L282 159L281 158z"/>
<path style="fill:#1c2d51;" d="M282 158L283 159L282 158z"/>
<path style="fill:#010101;" d="M265 185C268.791 183.016 272.605 180.682 277 180.471C280.608 180.299 284.552 182.39 287.895 180.307C294.479 176.204 297.506 160.846 287.995 158.448C273.634 154.828 267.358 174.811 265 185z"/>
<path style="fill:#273e70;" d="M289 158L290 159L289 158M250 159L251 160L250 159z"/>
<path style="fill:#1c2d51;" d="M279 159L280 160L279 159z"/>
<path style="fill:#3859a1;" d="M291 159L292 160L291 159z"/>
<path style="fill:#273e70;" d="M277 160L278 161L277 160M292 160L293 161L292 160z"/>
<path style="fill:#1c2d51;" d="M317 160L317 164L318 164L317 160M249 161L250 162L249 161M276 161L277 162L276 161z"/>
<path style="fill:#3859a1;" d="M293 161L294 162L293 161M249 162L250 163L249 162M274 162L275 163L274 162M273 163L274 164L273 163z"/>
<path style="fill:#1c2d51;" d="M248 164L249 165L248 164z"/>
<path style="fill:#3859a1;" d="M294 164L295 165L294 164M248 165L249 166L248 165z"/>
<path style="fill:#1c2d51;" d="M272 165L273 166L272 165z"/>
<path style="fill:#273e70;" d="M294.333 165.667L294.667 166.333L294.333 165.667z"/>
<path style="fill:#3859a1;" d="M271 166L272 167L271 166z"/>
<path style="fill:#1c2d51;" d="M247 167L248 168L247 167z"/>
<path style="fill:#3859a1;" d="M294.333 167.667L294.667 168.333L294.333 167.667M316.333 167.667L316.667 168.333L316.333 167.667M247 168L248 169L247 168z"/>
<path style="fill:#1c2d51;" d="M270 168L271 169L270 168z"/>
<path style="fill:#273e70;" d="M316 169L317 170L316 169z"/>
<path style="fill:#1c2d51;" d="M246 170L247 171L246 170z"/>
<path style="fill:#3859a1;" d="M269 170L270 171L269 170z"/>
<path style="fill:#1c2d51;" d="M316 170L317 171L316 170z"/>
<path style="fill:#3859a1;" d="M246 171L247 172L246 171z"/>
<path style="fill:#1c2d51;" d="M269 171L270 172L269 171z"/>
<path style="fill:#273e70;" d="M293 171L294 172L293 171z"/>
<path style="fill:#3859a1;" d="M293 172L294 173L293 172M315 172L316 173L315 172z"/>
<path style="fill:#273e70;" d="M245 173L246 174L245 173M268 173L269 174L268 173z"/>
<path style="fill:#1c2d51;" d="M315 173L316 174L315 173z"/>
<path style="fill:#3859a1;" d="M245 174L246 175L245 174z"/>
<path style="fill:#1c2d51;" d="M268 174L269 175L268 174z"/>
<path style="fill:#273e70;" d="M292 174L293 175L292 174z"/>
<path style="fill:#3859a1;" d="M267 175L268 176L267 175M314 175L315 176L314 175z"/>
<path style="fill:#273e70;" d="M244 176L245 177L244 176M267 176L268 177L267 176z"/>
<path style="fill:#1c2d51;" d="M291 176L292 177L291 176M314 176L315 177L314 176z"/>
<path style="fill:#3859a1;" d="M313 177L314 178L313 177z"/>
<path style="fill:#1c2d51;" d="M243 178L244 179L243 178z"/>
<path style="fill:#3859a1;" d="M266 178L267 179L266 178M290 178L291 179L290 178z"/>
<path style="fill:#1c2d51;" d="M313 178L314 179L313 178z"/>
<path style="fill:#3859a1;" d="M243 179L244 180L243 179z"/>
<path style="fill:#273e70;" d="M266 179L267 180L266 179z"/>
<path style="fill:#1c2d51;" d="M289 179L290 180L289 179M275 180L275 181L280 181L275 180M288 180L289 181L288 180M312 180L313 181L312 180M242 181L243 182L242 181z"/>
<path style="fill:#3859a1;" d="M265 181L266 182L265 181z"/>
<path style="fill:#1c2d51;" d="M271 181L272 182L271 181z"/>
<path style="fill:#3859a1;" d="M272 181L273 182L272 181M283 181L284 182L283 181z"/>
<path style="fill:#1c2d51;" d="M284 181L285 182L284 181z"/>
<path style="fill:#273e70;" d="M287 181L288 182L287 181z"/>
<path style="fill:#3859a1;" d="M242 182L243 183L242 182z"/>
<path style="fill:#1c2d51;" d="M265 182L266 183L265 182z"/>
<path style="fill:#3859a1;" d="M269 182L270 183L269 182z"/>
<path style="fill:#1c2d51;" d="M311 182L312 183L311 182M267 183L268 184L267 183z"/>
<path style="fill:#3859a1;" d="M310 183L311 184L310 183z"/>
<path style="fill:#1c2d51;" d="M241 184L242 185L241 184z"/>
<path style="fill:#3859a1;" d="M264 184L264 187L265 187L264 184M266 184L267 185L266 184M241 185L242 186L241 185z"/>
<path style="fill:#1c2d51;" d="M264 185L265 186L264 185M309 185L310 186L309 185z"/>
<path style="fill:#273e70;" d="M308 186L309 187L308 186z"/>
<path style="fill:#1c2d51;" d="M240 187L241 188L240 187z"/>
<path style="fill:#3859a1;" d="M307 187L308 188L307 187M240 188L241 189L240 188M306 188L307 189L306 188M305 189L306 190L305 189z"/>
<path style="fill:#273e70;" d="M239 190L240 191L239 190z"/>
<path style="fill:#3859a1;" d="M304 190L305 191L304 190M239 191L240 192L239 191z"/>
<path style="fill:#273e70;" d="M303 191L304 192L303 191z"/>
<path style="fill:#3859a1;" d="M303 192L304 193L303 192z"/>
<path style="fill:#273e70;" d="M238 193L239 194L238 193z"/>
<path style="fill:#3859a1;" d="M304 193L305 194L304 193z"/>
<path style="fill:#273e70;" d="M305 194L306 195L305 194z"/>
<path style="fill:#1c2d51;" d="M237 195L238 196L237 195z"/>
<path style="fill:#273e70;" d="M237 196L238 197L237 196M306 196L307 197L306 196M260 197L261 198L260 197z"/>
<path style="fill:#1c2d51;" d="M236 198L237 199L236 198z"/>
<path style="fill:#3859a1;" d="M259 198L260 199L259 198z"/>
<path style="fill:#1c2d51;" d="M307 198L308 199L307 198M201 199L202 200L201 199z"/>
<path style="fill:#273e70;" d="M202.667 199.333L203.333 199.667L202.667 199.333z"/>
<path style="fill:#3859a1;" d="M204 199L204 200L211 200L204 199z"/>
<path style="fill:#273e70;" d="M211.667 199.333L212.333 199.667L211.667 199.333z"/>
<path style="fill:#1c2d51;" d="M213 199L214 200L213 199z"/>
<path style="fill:#3859a1;" d="M236 199L237 200L236 199z"/>
<path style="fill:#273e70;" d="M259 199L260 200L259 199z"/>
<path style="fill:#3859a1;" d="M307 199L308 200L307 199z"/>
<path style="fill:#1c2d51;" d="M197 200L198 201L197 200z"/>
<path style="fill:#3859a1;" d="M198.667 200.333L199.333 200.667L198.667 200.333M216 200L217 201L216 200z"/>
<path style="fill:#273e70;" d="M217 200L218 201L217 200z"/>
<path style="fill:#1c2d51;" d="M218 200L219 201L218 200M235 200L236 201L235 200z"/>
<path style="fill:#273e70;" d="M261 200L262 201L261 200z"/>
<path style="fill:#1c2d51;" d="M194 201L195 202L194 201z"/>
<path style="fill:#3859a1;" d="M195 201L196 202L195 201z"/>
<path style="fill:#273e70;" d="M220 201L221 202L220 201z"/>
<path style="fill:#3859a1;" d="M258 201L259 202L258 201M262 201L263 202L262 201z"/>
<path style="fill:#1c2d51;" d="M308 201L308 204L309 204L308 201M191 202L192 203L191 202z"/>
<path style="fill:#3859a1;" d="M192 202L193 203L192 202M222 202L223 203L222 202z"/>
<path style="fill:#1c2d51;" d="M258 202L259 203L258 202z"/>
<path style="fill:#3859a1;" d="M190 203L191 204L190 203z"/>
<path style="fill:#273e70;" d="M224 203L225 204L224 203z"/>
<path style="fill:#3859a1;" d="M264 203L265 204L264 203M188 204L189 205L188 204M225 204L226 205L225 204M257 204L258 205L257 204z"/>
<path style="fill:#1c2d51;" d="M265 204L266 205L265 204z"/>
<path style="fill:#3859a1;" d="M266 204L267 205L266 204M275 204L276 205L275 204z"/>
<path style="fill:#273e70;" d="M276 204L277 205L276 204z"/>
<path style="fill:#1c2d51;" d="M281 204L282 205L281 204z"/>
<path style="fill:#273e70;" d="M308 204L308 208L309 208L308 204M186 205L187 206L186 205z"/>
<path style="fill:#1c2d51;" d="M227 205L228 206L227 205M257 205L258 206L257 205M268 205L268 206L273 206L268 205z"/>
<path style="fill:#3859a1;" d="M185 206L186 207L185 206z"/>
<path style="fill:#1c2d51;" d="M283 206L284 207L283 206M183 207L184 208L183 207M229 207L230 208L229 207z"/>
<path style="fill:#3859a1;" d="M256 207L257 208L256 207z"/>
<path style="fill:#273e70;" d="M182 208L183 209L182 208z"/>
<path style="fill:#1c2d51;" d="M256 208L257 209L256 208z"/>
<path style="fill:#3859a1;" d="M284 208L284 212L285 212L284 208z"/>
<path style="fill:#1c2d51;" d="M308 208L309 209L308 208M330 208L330 209L333 209L330 208z"/>
<path style="fill:#273e70;" d="M181 209L182 210L181 209z"/>
<path style="fill:#1c2d51;" d="M327 209L328 210L327 209z"/>
<path style="fill:#3859a1;" d="M328 209L329 210L328 209M334 209L335 210L334 209z"/>
<path style="fill:#1c2d51;" d="M335 209L336 210L335 209z"/>
<path style="fill:#273e70;" d="M180 210L181 211L180 210z"/>
<path style="fill:#3859a1;" d="M255 210L256 211L255 210M326 210L327 211L326 210z"/>
<path style="fill:#273e70;" d="M336 210L337 211L336 210M179 211L180 212L179 211z"/>
<path style="fill:#1c2d51;" d="M255 211L256 212L255 211z"/>
<path style="fill:#3859a1;" d="M307 211L308 212L307 211M325 211L326 212L325 211M337 211L338 212L337 211z"/>
<path style="fill:#1c2d51;" d="M178 212L179 213L178 212M307 212L308 213L307 212z"/>
<path style="fill:#3859a1;" d="M324 212L325 213L324 212z"/>
<path style="fill:#273e70;" d="M338 212L339 213L338 212z"/>
<path style="fill:#3859a1;" d="M254 213L255 214L254 213z"/>
<path style="fill:#1c2d51;" d="M283 213L284 214L283 213M323 213L324 214L323 213z"/>
<path style="fill:#3859a1;" d="M177 214L178 215L177 214z"/>
<path style="fill:#1c2d51;" d="M254 214L255 215L254 214z"/>
<path style="fill:#3859a1;" d="M283 214L284 215L283 214M306 214L307 215L306 214z"/>
<path style="fill:#1c2d51;" d="M339 214L340 215L339 214z"/>
<path style="fill:#273e70;" d="M176 215L177 216L176 215z"/>
<path style="fill:#1c2d51;" d="M306 215L307 216L306 215M322 215L323 216L322 215z"/>
<path style="fill:#273e70;" d="M339 215L340 216L339 215z"/>
<path style="fill:#1c2d51;" d="M175 216L176 217L175 216z"/>
<path style="fill:#3859a1;" d="M253 216L254 217L253 216z"/>
<path style="fill:#273e70;" d="M282 216L283 217L282 216z"/>
<path style="fill:#3859a1;" d="M322 216L323 217L322 216M339 216L340 217L339 216M175 217L176 218L175 217z"/>
<path style="fill:#1c2d51;" d="M253 217L254 218L253 217z"/>
<path style="fill:#3859a1;" d="M282 217L283 218L282 217M305 217L306 218L305 217z"/>
<path style="fill:#273e70;" d="M339 217L340 218L339 217z"/>
<path style="fill:#1c2d51;" d="M174 218L175 219L174 218M281 218L282 219L281 218z"/>
<path style="fill:#273e70;" d="M321 218L322 219L321 218z"/>
<path style="fill:#1c2d51;" d="M339 218L340 219L339 218z"/>
<path style="fill:#3859a1;" d="M174 219L175 220L174 219M252 219L253 220L252 219M281 219L282 220L281 219M304 219L305 220L304 219z"/>
<path style="fill:#1c2d51;" d="M252 220L253 221L252 220M304 220L305 221L304 220M320 220L321 221L320 220z"/>
<path style="fill:#3859a1;" d="M338 220L339 221L338 220M173 221L174 222L173 221M205.667 221.333L206.333 221.667L205.667 221.333z"/>
<path style="fill:#273e70;" d="M207 221L207 222L210 222L207 221z"/>
<path style="fill:#3859a1;" d="M210 221L211 222L210 221z"/>
<path style="fill:#273e70;" d="M280 221L281 222L280 221z"/>
<path style="fill:#3859a1;" d="M320 221L321 222L320 221z"/>
<path style="fill:#273e70;" d="M338 221L339 222L338 221M203 222L204 223L203 222z"/>
<path style="fill:#010101;" d="M204.004 222.653C196.175 225.125 194.032 234.157 191.656 241C185.51 258.7 174.087 279.311 172.34 298C171.625 305.655 178.037 309.52 185 307.941C192.176 306.314 196.667 300.334 199.68 294C207.541 277.474 218.52 253.172 220.634 235C221.681 225.998 212.077 220.103 204.004 222.653z"/>
<path style="fill:#1c2d51;" d="M212 222L213 223L212 222z"/>
<path style="fill:#273e70;" d="M213 222L214 223L213 222z"/>
<path style="fill:#3859a1;" d="M251 222L252 223L251 222M280 222L281 223L280 222M303 222L304 223L303 222z"/>
<path style="fill:#1c2d51;" d="M319 222L320 223L319 222z"/>
<path style="fill:#273e70;" d="M172 223L173 224L172 223M201 223L202 224L201 223z"/>
<path style="fill:#3859a1;" d="M215 223L216 224L215 223z"/>
<path style="fill:#1c2d51;" d="M279 223L280 224L279 223M303 223L304 224L303 223z"/>
<path style="fill:#3859a1;" d="M319 223L320 224L319 223M337 223L338 224L337 223M172 224L173 225L172 224z"/>
<path style="fill:#1c2d51;" d="M216 224L217 225L216 224z"/>
<path style="fill:#3859a1;" d="M279 224L280 225L279 224M302 224L303 225L302 224z"/>
<path style="fill:#1c2d51;" d="M337 224L338 225L337 224M217 225L218 226L217 225z"/>
<path style="fill:#273e70;" d="M250 225L251 226L250 225z"/>
<path style="fill:#1c2d51;" d="M302 225L303 226L302 225z"/>
<path style="fill:#3859a1;" d="M318 225L319 226L318 225z"/>
<path style="fill:#273e70;" d="M171 226L172 227L171 226z"/>
<path style="fill:#1c2d51;" d="M218 226L219 227L218 226M278 226L279 227L278 226M317 226L318 227L317 226z"/>
<path style="fill:#273e70;" d="M336 226L337 227L336 226z"/>
<path style="fill:#1c2d51;" d="M197 227L198 228L197 227z"/>
<path style="fill:#3859a1;" d="M219 227L220 228L219 227M278 227L279 228L278 227M301 227L302 228L301 227M317 227L318 228L317 227z"/>
<path style="fill:#1c2d51;" d="M170 228L171 229L170 228z"/>
<path style="fill:#273e70;" d="M196 228L197 229L196 228z"/>
<path style="fill:#1c2d51;" d="M249 228L250 229L249 228M301 228L302 229L301 228z"/>
<path style="fill:#273e70;" d="M316 228L317 229L316 228z"/>
<path style="fill:#3859a1;" d="M335 228L336 229L335 228M170 229L171 230L170 229z"/>
<path style="fill:#273e70;" d="M220 229L221 230L220 229z"/>
<path style="fill:#1c2d51;" d="M277 229L278 230L277 229z"/>
<path style="fill:#3859a1;" d="M300 229L301 230L300 229z"/>
<path style="fill:#1c2d51;" d="M335 229L336 230L335 229M195 230L196 231L195 230M220 230L221 231L220 230z"/>
<path style="fill:#3859a1;" d="M248 230L249 231L248 230M277 230L278 231L277 230z"/>
<path style="fill:#273e70;" d="M300 230L301 231L300 230z"/>
<path style="fill:#3859a1;" d="M315 230L316 231L315 230M334 230L335 231L334 230z"/>
<path style="fill:#1c2d51;" d="M169 231L170 232L169 231M248 231L249 232L248 231z"/>
<path style="fill:#273e70;" d="M314 231L315 232L314 231z"/>
<path style="fill:#1c2d51;" d="M334 231L335 232L334 231z"/>
<path style="fill:#3859a1;" d="M169 232L170 233L169 232z"/>
<path style="fill:#273e70;" d="M194 232L195 233L194 232z"/>
<path style="fill:#3859a1;" d="M221.333 232.667L221.667 233.333L221.333 232.667M299 232L300 233L299 232z"/>
<path style="fill:#1c2d51;" d="M313 232L314 233L313 232z"/>
<path style="fill:#3859a1;" d="M333 232L334 233L333 232M247 233L248 234L247 233z"/>
<path style="fill:#1c2d51;" d="M276.333 233.667L276.667 234.333L276.333 233.667M299 233L300 234L299 233M312 233L313 234L312 233M333 233L334 234L333 233M168 234L169 235L168 234z"/>
<path style="fill:#3859a1;" d="M193 234L194 235L193 234z"/>
<path style="fill:#1c2d51;" d="M247 234L248 235L247 234M311 234L312 235L311 234z"/>
<path style="fill:#3859a1;" d="M332 234L333 235L332 234M168 235L169 236L168 235z"/>
<path style="fill:#1c2d51;" d="M193 235L194 236L193 235z"/>
<path style="fill:#273e70;" d="M276 235L276 238L277 238L276 235z"/>
<path style="fill:#1c2d51;" d="M310 235L311 236L310 235M220 236L221 237L220 236z"/>
<path style="fill:#3859a1;" d="M246 236L247 237L246 236M309 236L310 237L309 236z"/>
<path style="fill:#273e70;" d="M331 236L332 237L331 236M167 237L168 238L167 237z"/>
<path style="fill:#3859a1;" d="M192 237L193 238L192 237M220 237L221 238L220 237M299 237L300 238L299 237z"/>
<path style="fill:#273e70;" d="M307 237L308 238L307 237z"/>
<path style="fill:#3859a1;" d="M330 237L331 238L330 237M167 238L168 239L167 238z"/>
<path style="fill:#1c2d51;" d="M192 238L193 239L192 238M276.333 238.667L276.667 239.333L276.333 238.667z"/>
<path style="fill:#3859a1;" d="M301 238L302 239L301 238z"/>
<path style="fill:#273e70;" d="M302.667 238.333L303.333 238.667L302.667 238.333z"/>
<path style="fill:#3859a1;" d="M304.667 238.333L305.333 238.667L304.667 238.333z"/>
<path style="fill:#1c2d51;" d="M330 238L331 239L330 238z"/>
<path style="fill:#273e70;" d="M219 239L220 240L219 239M245 239L246 240L245 239M329 239L330 240L329 239M166 240L167 241L166 240z"/>
<path style="fill:#3859a1;" d="M191 240L192 241L191 240M219 240L220 241L219 240M328 240L329 241L328 240M166 241L167 242L166 241z"/>
<path style="fill:#1c2d51;" d="M191 241L192 242L191 241M165 242L166 243L165 242z"/>
<path style="fill:#273e70;" d="M218 242L219 243L218 242M244 242L245 243L244 242M277 242L278 243L277 242z"/>
<path style="fill:#1c2d51;" d="M327 242L328 243L327 242z"/>
<path style="fill:#273e70;" d="M165 243L166 244L165 243M190 243L191 244L190 243z"/>
<path style="fill:#1c2d51;" d="M277 243L278 244L277 243M326 243L327 244L326 243M190 244L191 245L190 244M217 244L218 245L217 244z"/>
<path style="fill:#3859a1;" d="M243 244L244 245L243 244z"/>
<path style="fill:#1c2d51;" d="M325 244L326 245L325 244M164 245L165 246L164 245z"/>
<path style="fill:#273e70;" d="M217 245L218 246L217 245z"/>
<path style="fill:#1c2d51;" d="M243 245L244 246L243 245M278 245L279 246L278 245z"/>
<path style="fill:#273e70;" d="M324 245L325 246L324 245z"/>
<path style="fill:#3859a1;" d="M164 246L165 247L164 246z"/>
<path style="fill:#273e70;" d="M189 246L190 247L189 246z"/>
<path style="fill:#3859a1;" d="M279 246L280 247L279 246z"/>
<path style="fill:#1c2d51;" d="M323 246L324 247L323 246M216 247L217 248L216 247z"/>
<path style="fill:#3859a1;" d="M242 247L243 248L242 247z"/>
<path style="fill:#1c2d51;" d="M322 247L323 248L322 247M163 248L164 249L163 248z"/>
<path style="fill:#3859a1;" d="M188 248L189 249L188 248M216 248L217 249L216 248z"/>
<path style="fill:#1c2d51;" d="M242 248L243 249L242 248M280 248L281 249L280 248M321 248L322 249L321 248z"/>
<path style="fill:#3859a1;" d="M163 249L164 250L163 249z"/>
<path style="fill:#273e70;" d="M188 249L189 250L188 249z"/>
<path style="fill:#1c2d51;" d="M281 249L282 250L281 249z"/>
<path style="fill:#3859a1;" d="M319 249L320 250L319 249z"/>
<path style="fill:#1c2d51;" d="M215 250L216 251L215 250z"/>
<path style="fill:#273e70;" d="M241 250L242 251L241 250z"/>
<path style="fill:#1c2d51;" d="M282 250L283 251L282 250M318 250L319 251L318 250M162 251L163 252L162 251z"/>
<path style="fill:#3859a1;" d="M187 251L188 252L187 251M215 251L216 252L215 251M284 251L285 252L284 251M316 251L317 252L316 251M162 252L163 253L162 252z"/>
<path style="fill:#1c2d51;" d="M187 252L188 253L187 252z"/>
<path style="fill:#3859a1;" d="M240 252L241 253L240 252z"/>
<path style="fill:#273e70;" d="M285 252L286 253L285 252z"/>
<path style="fill:#3859a1;" d="M314 252L315 253L314 252z"/>
<path style="fill:#1c2d51;" d="M214 253L215 254L214 253M240 253L241 254L240 253z"/>
<path style="fill:#273e70;" d="M287 253L288 254L287 253M312 253L313 254L312 253M161 254L162 255L161 254z"/>
<path style="fill:#3859a1;" d="M186 254L187 255L186 254M214 254L215 255L214 254z"/>
<path style="fill:#1c2d51;" d="M289 254L290 255L289 254z"/>
<path style="fill:#3859a1;" d="M290 254L291 255L290 254M309 254L310 255L309 254z"/>
<path style="fill:#1c2d51;" d="M310 254L311 255L310 254M333 254L333 255L336 255L333 254z"/>
<path style="fill:#3859a1;" d="M161 255L162 256L161 255z"/>
<path style="fill:#1c2d51;" d="M186 255L187 256L186 255z"/>
<path style="fill:#3859a1;" d="M239 255L240 256L239 255z"/>
<path style="fill:#1c2d51;" d="M293 255L294 256L293 255z"/>
<path style="fill:#3859a1;" d="M294 255L294 256L297 256L294 255M302 255L302 256L305 256L302 255z"/>
<path style="fill:#273e70;" d="M305 255L306 256L305 255z"/>
<path style="fill:#1c2d51;" d="M306 255L307 256L306 255M330 255L331 256L330 255z"/>
<path style="fill:#3859a1;" d="M331 255L332 256L331 255M337 255L338 256L337 255z"/>
<path style="fill:#1c2d51;" d="M338 255L339 256L338 255z"/>
<path style="fill:#273e70;" d="M213 256L214 257L213 256z"/>
<path style="fill:#1c2d51;" d="M239 256L240 257L239 256z"/>
<path style="fill:#3859a1;" d="M329 256L330 257L329 256M339 256L340 257L339 256z"/>
<path style="fill:#273e70;" d="M160 257L161 258L160 257z"/>
<path style="fill:#3859a1;" d="M185 257L186 258L185 257M213 257L214 258L213 257M328 257L329 258L328 257M340 257L341 258L340 257z"/>
<path style="fill:#1c2d51;" d="M185 258L186 259L185 258z"/>
<path style="fill:#3859a1;" d="M238 258L239 259L238 258M327 258L328 259L327 258z"/>
<path style="fill:#1c2d51;" d="M341 258L342 259L341 258M159 259L160 260L159 259z"/>
<path style="fill:#273e70;" d="M212 259L213 260L212 259z"/>
<path style="fill:#1c2d51;" d="M238 259L239 260L238 259z"/>
<path style="fill:#3859a1;" d="M326 259L327 260L326 259M341 259L341 262L342 262L341 259M159 260L160 261L159 260M184 260L185 261L184 260z"/>
<path style="fill:#273e70;" d="M325 260L326 261L325 260z"/>
<path style="fill:#1c2d51;" d="M184 261L185 262L184 261M211 261L212 262L211 261z"/>
<path style="fill:#273e70;" d="M237 261L238 262L237 261z"/>
<path style="fill:#1c2d51;" d="M324 261L325 262L324 261M158 262L159 263L158 262z"/>
<path style="fill:#3859a1;" d="M211 262L212 263L211 262z"/>
<path style="fill:#1c2d51;" d="M323 262L324 263L323 262z"/>
<path style="fill:#273e70;" d="M341 262L342 263L341 262z"/>
<path style="fill:#3859a1;" d="M158 263L159 264L158 263z"/>
<path style="fill:#273e70;" d="M183 263L184 264L183 263z"/>
<path style="fill:#3859a1;" d="M236 263L237 264L236 263z"/>
<path style="fill:#1c2d51;" d="M274 263L275 264L274 263z"/>
<path style="fill:#273e70;" d="M275 263L276 264L275 263z"/>
<path style="fill:#3859a1;" d="M276.667 263.333L277.333 263.667L276.667 263.333M281 263L281 264L284 264L281 263z"/>
<path style="fill:#273e70;" d="M284 263L285 264L284 263z"/>
<path style="fill:#1c2d51;" d="M285 263L286 264L285 263M322 263L323 264L322 263M341 263L342 264L341 263M183 264L184 265L183 264M210 264L211 265L210 264z"/>
<path style="fill:#273e70;" d="M236 264L237 265L236 264z"/>
<path style="fill:#3859a1;" d="M271.667 264.333L272.333 264.667L271.667 264.333M287 264L288 265L287 264z"/>
<path style="fill:#1c2d51;" d="M288 264L289 265L288 264z"/>
<path style="fill:#3859a1;" d="M340 264L341 265L340 264z"/>
<path style="fill:#1c2d51;" d="M157 265L158 266L157 265z"/>
<path style="fill:#3859a1;" d="M182 265L183 266L182 265M210 265L211 266L210 265z"/>
<path style="fill:#1c2d51;" d="M268 265L269 266L268 265z"/>
<path style="fill:#3859a1;" d="M269 265L270 266L269 265M289 265L290 266L289 265z"/>
<path style="fill:#1c2d51;" d="M290 265L291 266L290 265z"/>
<path style="fill:#3859a1;" d="M321 265L322 266L321 265M157 266L158 267L157 266z"/>
<path style="fill:#273e70;" d="M182 266L183 267L182 266z"/>
<path style="fill:#3859a1;" d="M235 266L236 267L235 266z"/>
<path style="fill:#1c2d51;" d="M266 266L267 267L266 266z"/>
<path style="fill:#3859a1;" d="M267 266L268 267L267 266M291 266L292 267L291 266M320 266L321 267L320 266z"/>
<path style="fill:#1c2d51;" d="M339 266L340 267L339 266M209 267L210 268L209 267M235 267L236 268L235 267z"/>
<path style="fill:#3859a1;" d="M265 267L266 268L265 267z"/>
<path style="fill:#1c2d51;" d="M293 267L294 268L293 267z"/>
<path style="fill:#273e70;" d="M319 267L320 268L319 267z"/>
<path style="fill:#1c2d51;" d="M338 267L339 268L338 267z"/>
<path style="fill:#273e70;" d="M156 268L157 269L156 268z"/>
<path style="fill:#3859a1;" d="M181 268L182 269L181 268M209 268L210 269L209 268z"/>
<path style="fill:#1c2d51;" d="M263 268L264 269L263 268z"/>
<path style="fill:#273e70;" d="M294 268L295 269L294 268z"/>
<path style="fill:#1c2d51;" d="M318 268L319 269L318 268z"/>
<path style="fill:#273e70;" d="M337 268L338 269L337 268z"/>
<path style="fill:#3859a1;" d="M156 269L157 270L156 269z"/>
<path style="fill:#273e70;" d="M181 269L182 270L181 269z"/>
<path style="fill:#3859a1;" d="M234 269L235 270L234 269z"/>
<path style="fill:#1c2d51;" d="M262 269L263 270L262 269z"/>
<path style="fill:#273e70;" d="M295 269L296 270L295 269z"/>
<path style="fill:#3859a1;" d="M336 269L337 270L336 269z"/>
<path style="fill:#273e70;" d="M208 270L209 271L208 270z"/>
<path style="fill:#1c2d51;" d="M234 270L235 271L234 270M261 270L262 271L261 270M296 270L297 271L296 270z"/>
<path style="fill:#3859a1;" d="M335 270L336 271L335 270z"/>
<path style="fill:#273e70;" d="M155 271L156 272L155 271z"/>
<path style="fill:#3859a1;" d="M180 271L181 272L180 271M208 271L209 272L208 271z"/>
<path style="fill:#1c2d51;" d="M260 271L261 272L260 271z"/>
<path style="fill:#3859a1;" d="M316 271L317 272L316 271z"/>
<path style="fill:#1c2d51;" d="M180 272L181 273L180 272z"/>
<path style="fill:#3859a1;" d="M233 272L234 273L233 272z"/>
<path style="fill:#1c2d51;" d="M259 272L260 273L259 272z"/>
<path style="fill:#3859a1;" d="M297 272L298 273L297 272z"/>
<path style="fill:#273e70;" d="M315 272L316 273L315 272z"/>
<path style="fill:#1c2d51;" d="M334 272L335 273L334 272M154 273L155 274L154 273z"/>
<path style="fill:#273e70;" d="M207 273L208 274L207 273z"/>
<path style="fill:#1c2d51;" d="M233 273L234 274L233 273M258 273L259 274L258 273M298 273L299 274L298 273M314 273L315 274L314 273z"/>
<path style="fill:#273e70;" d="M333 273L334 274L333 273M154 274L155 275L154 274z"/>
<path style="fill:#3859a1;" d="M179 274L180 275L179 274M332 274L333 275L332 274z"/>
<path style="fill:#1c2d51;" d="M179 275L180 276L179 275M206 275L207 276L206 275z"/>
<path style="fill:#273e70;" d="M232 275L233 276L232 275z"/>
<path style="fill:#3859a1;" d="M257 275L258 276L257 275z"/>
<path style="fill:#1c2d51;" d="M299 275L300 276L299 275z"/>
<path style="fill:#3859a1;" d="M313 275L314 276L313 275z"/>
<path style="fill:#1c2d51;" d="M153 276L154 277L153 276z"/>
<path style="fill:#3859a1;" d="M206 276L207 277L206 276z"/>
<path style="fill:#1c2d51;" d="M256 276L257 277L256 276z"/>
<path style="fill:#3859a1;" d="M299 276L300 277L299 276M312 276L313 277L312 276M153 277L154 278L153 277M178 277L179 278L178 277M231 277L232 278L231 277z"/>
<path style="fill:#1c2d51;" d="M311 277L312 278L311 277M330 277L331 278L330 277M178 278L179 279L178 278M205 278L206 279L205 278z"/>
<path style="fill:#273e70;" d="M231 278L232 279L231 278z"/>
<path style="fill:#3859a1;" d="M255 278L256 279L255 278M275 278L275 279L278 279L275 278z"/>
<path style="fill:#273e70;" d="M300 278L301 279L300 278z"/>
<path style="fill:#3859a1;" d="M329 278L330 279L329 278z"/>
<path style="fill:#1c2d51;" d="M152 279L153 280L152 279z"/>
<path style="fill:#3859a1;" d="M205 279L206 280L205 279M274 279L275 280L274 279M279 279L280 280L279 279M300 279L301 280L300 279M310 279L311 280L310 279M152 280L153 281L152 280z"/>
<path style="fill:#273e70;" d="M177 280L178 281L177 280z"/>
<path style="fill:#3859a1;" d="M230 280L231 281L230 280M254 280L255 281L254 280M280 280L281 281L280 280z"/>
<path style="fill:#1c2d51;" d="M309 280L310 281L309 280M328 280L329 281L328 280M177 281L178 282L177 281M204 281L205 282L204 281M230 281L231 282L230 281M301 281L302 282L301 281z"/>
<path style="fill:#273e70;" d="M327 281L328 282L327 281z"/>
<path style="fill:#1c2d51;" d="M151 282L152 283L151 282z"/>
<path style="fill:#3859a1;" d="M204 282L205 283L204 282M253 282L254 283L253 282z"/>
<path style="fill:#273e70;" d="M281 282L282 283L281 282z"/>
<path style="fill:#3859a1;" d="M301 282L302 283L301 282M308 282L309 283L308 282M326 282L327 283L326 282M151 283L152 284L151 283z"/>
<path style="fill:#273e70;" d="M176 283L177 284L176 283z"/>
<path style="fill:#3859a1;" d="M229 283L230 284L229 283z"/>
<path style="fill:#1c2d51;" d="M307 283L308 284L307 283z"/>
<path style="fill:#273e70;" d="M203 284L204 285L203 284z"/>
<path style="fill:#1c2d51;" d="M229 284L230 285L229 284z"/>
<path style="fill:#273e70;" d="M252 284L253 285L252 284z"/>
<path style="fill:#3859a1;" d="M274 284L275 285L274 284M282 284L283 285L282 284z"/>
<path style="fill:#1c2d51;" d="M325 284L326 285L325 284z"/>
<path style="fill:#273e70;" d="M150 285L151 286L150 285z"/>
<path style="fill:#3859a1;" d="M175 285L176 286L175 285M203 285L204 286L203 285M252 285L253 286L252 285z"/>
<path style="fill:#1c2d51;" d="M274 285L275 286L274 285z"/>
<path style="fill:#273e70;" d="M282 285L283 286L282 285z"/>
<path style="fill:#1c2d51;" d="M302 285L303 286L302 285z"/>
<path style="fill:#3859a1;" d="M306 285L307 286L306 285M324 285L325 286L324 285M150 286L151 287L150 286z"/>
<path style="fill:#273e70;" d="M175 286L176 287L175 286z"/>
<path style="fill:#3859a1;" d="M228 286L229 287L228 286z"/>
<path style="fill:#1c2d51;" d="M282 286L283 287L282 286z"/>
<path style="fill:#3859a1;" d="M302 286L303 287L302 286z"/>
<path style="fill:#1c2d51;" d="M305 286L306 287L305 286z"/>
<path style="fill:#273e70;" d="M202 287L203 288L202 287z"/>
<path style="fill:#1c2d51;" d="M228 287L229 288L228 287z"/>
<path style="fill:#273e70;" d="M251 287L252 288L251 287z"/>
<path style="fill:#3859a1;" d="M273 287L274 288L273 287M305 287L306 288L305 287z"/>
<path style="fill:#1c2d51;" d="M323 287L324 288L323 287z"/>
<path style="fill:#273e70;" d="M149 288L150 289L149 288z"/>
<path style="fill:#3859a1;" d="M174 288L175 289L174 288M251 288L252 289L251 288z"/>
<path style="fill:#1c2d51;" d="M273 288L274 289L273 288z"/>
<path style="fill:#3859a1;" d="M283 288L284 289L283 288z"/>
<path style="fill:#1c2d51;" d="M303.667 288.333L304.333 288.667L303.667 288.333z"/>
<path style="fill:#3859a1;" d="M322 288L323 289L322 288z"/>
<path style="fill:#1c2d51;" d="M174 289L175 290L174 289M201 289L202 290L201 289z"/>
<path style="fill:#273e70;" d="M227 289L228 290L227 289M283 289L284 290L283 289M303 289L304 290L303 289z"/>
<path style="fill:#3859a1;" d="M304 289L305 290L304 289z"/>
<path style="fill:#1c2d51;" d="M148 290L149 291L148 290z"/>
<path style="fill:#3859a1;" d="M201 290L202 291L201 290z"/>
<path style="fill:#1c2d51;" d="M250 290L251 291L250 290z"/>
<path style="fill:#273e70;" d="M272 290L273 291L272 290z"/>
<path style="fill:#1c2d51;" d="M321 290L322 291L321 290z"/>
<path style="fill:#3859a1;" d="M148 291L149 292L148 291M173 291L174 292L173 291M226 291L227 292L226 291M250 291L251 292L250 291M320 291L321 292L320 291z"/>
<path style="fill:#1c2d51;" d="M173 292L174 293L173 292z"/>
<path style="fill:#273e70;" d="M200 292L201 293L200 292M226 292L227 293L226 292z"/>
<path style="fill:#3859a1;" d="M271 292L272 293L271 292M284 292L285 293L284 292z"/>
<path style="fill:#1c2d51;" d="M147 293L148 294L147 293M271 293L272 294L271 293M284 293L285 294L284 293M319 293L320 294L319 293z"/>
<path style="fill:#273e70;" d="M147 294L148 295L147 294z"/>
<path style="fill:#3859a1;" d="M172 294L173 295L172 294z"/>
<path style="fill:#1c2d51;" d="M199 294L200 295L199 294z"/>
<path style="fill:#3859a1;" d="M225 294L226 295L225 294z"/>
<path style="fill:#1c2d51;" d="M249 294L250 295L249 294z"/>
<path style="fill:#3859a1;" d="M318 294L319 295L318 294M147 295L148 296L147 295z"/>
<path style="fill:#273e70;" d="M172 295L173 296L172 295z"/>
<path style="fill:#3859a1;" d="M199 295L200 296L199 295z"/>
<path style="fill:#1c2d51;" d="M225 295L226 296L225 295z"/>
<path style="fill:#3859a1;" d="M249 295L250 296L249 295M270 295L271 296L270 295M285 295L286 296L285 295z"/>
<path style="fill:#1c2d51;" d="M172 296L173 297L172 296M198 296L199 297L198 296M248 296L249 297L248 296z"/>
<path style="fill:#273e70;" d="M285 296L286 297L285 296z"/>
<path style="fill:#1c2d51;" d="M317 296L318 297L317 296M146 297L147 298L146 297z"/>
<path style="fill:#3859a1;" d="M224 297L225 298L224 297M248 297L249 298L248 297M269 297L270 298L269 297z"/>
<path style="fill:#1c2d51;" d="M285 297L286 298L285 297z"/>
<path style="fill:#3859a1;" d="M316 297L317 298L316 297M146.333 298.667L146.667 299.333L146.333 298.667z"/>
<path style="fill:#273e70;" d="M197 298L198 299L197 298z"/>
<path style="fill:#1c2d51;" d="M224 298L225 299L224 298M247 298L248 299L247 298M269 298L270 299L269 298M196 299L197 300L196 299z"/>
<path style="fill:#3859a1;" d="M268 299L269 300L268 299M286 299L287 300L286 299z"/>
<path style="fill:#273e70;" d="M315 299L316 300L315 299z"/>
<path style="fill:#3859a1;" d="M223 300L224 301L223 300M246 300L247 301L246 300z"/>
<path style="fill:#1c2d51;" d="M268 300L269 301L268 300z"/>
<path style="fill:#273e70;" d="M286 300L287 301L286 300z"/>
<path style="fill:#3859a1;" d="M195 301L196 302L195 301z"/>
<path style="fill:#1c2d51;" d="M223 301L224 302L223 301z"/>
<path style="fill:#273e70;" d="M245 301L246 302L245 301z"/>
<path style="fill:#3859a1;" d="M267 301L268 302L267 301z"/>
<path style="fill:#1c2d51;" d="M286 301L287 302L286 301M314 301L315 302L314 301M172 302L173 303L172 302z"/>
<path style="fill:#273e70;" d="M194 302L195 303L194 302z"/>
<path style="fill:#1c2d51;" d="M244 302L245 303L244 302M267 302L268 303L267 302z"/>
<path style="fill:#3859a1;" d="M313 302L314 303L313 302M172 303L173 304L172 303z"/>
<path style="fill:#1c2d51;" d="M193 303L194 304L193 303z"/>
<path style="fill:#3859a1;" d="M266 303L267 304L266 303M287 303L288 304L287 303z"/>
<path style="fill:#1c2d51;" d="M192 304L193 305L192 304z"/>
<path style="fill:#3859a1;" d="M222 304L222 308L223 308L222 304M243 304L244 305L243 304z"/>
<path style="fill:#1c2d51;" d="M266 304L267 305L266 304M287 304L288 305L287 304M312 304L313 305L312 304z"/>
<path style="fill:#3859a1;" d="M173 305L174 306L173 305M191 305L192 306L191 305M242 305L243 306L242 305M265 305L266 306L265 305M311 305L312 306L311 305M174 306L175 307L174 306z"/>
<path style="fill:#1c2d51;" d="M189 306L190 307L189 306z"/>
<path style="fill:#3859a1;" d="M241 306L242 307L241 306z"/>
<path style="fill:#1c2d51;" d="M311 306L312 307L311 306z"/>
<path style="fill:#3859a1;" d="M175 307L176 308L175 307z"/>
<path style="fill:#1c2d51;" d="M176 307L177 308L176 307M187 307L188 308L187 307z"/>
<path style="fill:#3859a1;" d="M188 307L189 308L188 307M240 307L241 308L240 307z"/>
<path style="fill:#273e70;" d="M264 307L265 308L264 307z"/>
<path style="fill:#3859a1;" d="M288 307L289 308L288 307M310 307L311 308L310 307M146.333 308.667L146.667 309.333L146.333 308.667M177 308L178 309L177 308z"/>
<path style="fill:#273e70;" d="M178 308L179 309L178 308z"/>
<path style="fill:#1c2d51;" d="M179 308L180 309L179 308M182.667 308.333L183.333 308.667L182.667 308.333z"/>
<path style="fill:#273e70;" d="M184 308L185 309L184 308z"/>
<path style="fill:#3859a1;" d="M185 308L186 309L185 308M239 308L240 309L239 308z"/>
<path style="fill:#1c2d51;" d="M288 308L289 309L288 308M223 309L224 310L223 309M237 309L238 310L237 309M263 309L264 310L263 309M309.333 309.667L309.667 310.333L309.333 309.667z"/>
<path style="fill:#273e70;" d="M146 310L147 311L146 310z"/>
<path style="fill:#3859a1;" d="M236 310L237 311L236 310M262 310L263 311L262 310M289 310L290 311L289 310M224 311L225 312L224 311z"/>
<path style="fill:#1c2d51;" d="M225 311L226 312L225 311z"/>
<path style="fill:#273e70;" d="M234 311L235 312L234 311M289 311L290 312L289 311z"/>
<path style="fill:#3859a1;" d="M309 311L310 312L309 311M226 312L227 313L226 312z"/>
<path style="fill:#273e70;" d="M227 312L228 313L227 312z"/>
<path style="fill:#1c2d51;" d="M228.667 312.333L229.333 312.667L228.667 312.333z"/>
<path style="fill:#273e70;" d="M230 312L231 313L230 312z"/>
<path style="fill:#3859a1;" d="M231.667 312.333L232.333 312.667L231.667 312.333z"/>
<path style="fill:#1c2d51;" d="M261 312L262 313L261 312M289 312L290 313L289 312z"/>
<path style="fill:#3859a1;" d="M147 313L148 314L147 313z"/>
<path style="fill:#273e70;" d="M260 313L261 314L260 313z"/>
<path style="fill:#1c2d51;" d="M310 313L311 314L310 313M147 314L148 315L147 314z"/>
<path style="fill:#3859a1;" d="M259 314L260 315L259 314z"/>
<path style="fill:#273e70;" d="M289 314L290 315L289 314M310 314L311 315L310 314z"/>
<path style="fill:#3859a1;" d="M148 315L149 316L148 315M310 315L311 316L310 315z"/>
<path style="fill:#1c2d51;" d="M148 316L149 317L148 316M258 316L259 317L258 316z"/>
<path style="fill:#3859a1;" d="M288 316L289 317L288 316M149 317L150 318L149 317z"/>
<path style="fill:#1c2d51;" d="M257 317L258 318L257 317M287 317L288 318L287 317M311 317L312 318L311 317z"/>
<path style="fill:#273e70;" d="M256 318L257 319L256 318z"/>
<path style="fill:#3859a1;" d="M287 318L288 319L287 318M311 318L312 319L311 318z"/>
<path style="fill:#273e70;" d="M150 319L151 320L150 319M255 319L256 320L255 319z"/>
<path style="fill:#1c2d51;" d="M286 319L287 320L286 319z"/>
<path style="fill:#3859a1;" d="M151 320L152 321L151 320M202 320L203 321L202 320z"/>
<path style="fill:#273e70;" d="M254 320L255 321L254 320z"/>
<path style="fill:#1c2d51;" d="M312 320L313 321L312 320z"/>
<path style="fill:#273e70;" d="M201 321L202 322L201 321z"/>
<path style="fill:#3859a1;" d="M203 321L204 322L203 321z"/>
<path style="fill:#273e70;" d="M253 321L254 322L253 321z"/>
<path style="fill:#3859a1;" d="M285 321L286 322L285 321z"/>
<path style="fill:#273e70;" d="M312 321L313 322L312 321z"/>
<path style="fill:#1c2d51;" d="M200 322L201 323L200 322M252 322L253 323L252 322M284 322L285 323L284 322z"/>
<path style="fill:#3859a1;" d="M312 322L313 323L312 322z"/>
<path style="fill:#1c2d51;" d="M153 323L154 324L153 323M199 323L200 324L199 323M204 323L205 324L204 323z"/>
<path style="fill:#3859a1;" d="M284 323L285 324L284 323z"/>
<path style="fill:#1c2d51;" d="M154 324L155 325L154 324z"/>
<path style="fill:#3859a1;" d="M197 324L198 325L197 324M249 324L250 325L249 324z"/>
<path style="fill:#1c2d51;" d="M283 324L284 325L283 324M313 324L314 325L313 324z"/>
<path style="fill:#3859a1;" d="M156 325L157 326L156 325z"/>
<path style="fill:#1c2d51;" d="M196 325L197 326L196 325z"/>
<path style="fill:#3859a1;" d="M207 325L208 326L207 325z"/>
<path style="fill:#1c2d51;" d="M248 325L249 326L248 325z"/>
<path style="fill:#3859a1;" d="M313 325L314 326L313 325z"/>
<path style="fill:#273e70;" d="M157 326L158 327L157 326z"/>
<path style="fill:#3859a1;" d="M194 326L195 327L194 326z"/>
<path style="fill:#273e70;" d="M208 326L209 327L208 326z"/>
<path style="fill:#3859a1;" d="M246 326L247 327L246 326z"/>
<path style="fill:#273e70;" d="M282 326L283 327L282 326z"/>
<path style="fill:#1c2d51;" d="M158 327L159 328L158 327z"/>
<path style="fill:#3859a1;" d="M159 327L160 328L159 327M192 327L193 328L192 327z"/>
<path style="fill:#1c2d51;" d="M193 327L194 328L193 327M209 327L210 328L209 327z"/>
<path style="fill:#3859a1;" d="M210 327L211 328L210 327M244 327L245 328L244 327z"/>
<path style="fill:#1c2d51;" d="M245 327L246 328L245 327M314 327L315 328L314 327M160 328L161 329L160 328z"/>
<path style="fill:#3859a1;" d="M161 328L162 329L161 328M190 328L191 329L190 328z"/>
<path style="fill:#1c2d51;" d="M191 328L192 329L191 328M211 328L212 329L211 328z"/>
<path style="fill:#3859a1;" d="M242 328L243 329L242 328z"/>
<path style="fill:#1c2d51;" d="M243 328L244 329L243 328z"/>
<path style="fill:#3859a1;" d="M281 328L282 329L281 328z"/>
<path style="fill:#273e70;" d="M314 328L315 329L314 328z"/>
<path style="fill:#1c2d51;" d="M162 329L163 330L162 329z"/>
<path style="fill:#3859a1;" d="M163 329L164 330L163 329z"/>
<path style="fill:#273e70;" d="M188 329L189 330L188 329z"/>
<path style="fill:#1c2d51;" d="M213 329L214 330L213 329z"/>
<path style="fill:#3859a1;" d="M214 329L215 330L214 329M240 329L241 330L240 329z"/>
<path style="fill:#1c2d51;" d="M241 329L242 330L241 329M280 329L281 330L280 329z"/>
<path style="fill:#3859a1;" d="M314 329L315 330L314 329z"/>
<path style="fill:#1c2d51;" d="M165 330L166 331L165 330z"/>
<path style="fill:#3859a1;" d="M166 330L167 331L166 330M184.667 330.333L185.333 330.667L184.667 330.333z"/>
<path style="fill:#1c2d51;" d="M186 330L187 331L186 330z"/>
<path style="fill:#273e70;" d="M216 330L217 331L216 330z"/>
<path style="fill:#3859a1;" d="M217 330L218 331L217 330M237 330L238 331L237 330z"/>
<path style="fill:#1c2d51;" d="M238 330L239 331L238 330z"/>
<path style="fill:#273e70;" d="M169 331L170 332L169 331z"/>
<path style="fill:#3859a1;" d="M170.667 331.333L171.333 331.667L170.667 331.333M179.667 331.333L180.333 331.667L179.667 331.333z"/>
<path style="fill:#273e70;" d="M181 331L182 332L181 331z"/>
<path style="fill:#1c2d51;" d="M182 331L183 332L182 331M219 331L220 332L219 331z"/>
<path style="fill:#273e70;" d="M220 331L221 332L220 331z"/>
<path style="fill:#3859a1;" d="M221.667 331.333L222.333 331.667L221.667 331.333M231.667 331.333L232.333 331.667L231.667 331.333z"/>
<path style="fill:#273e70;" d="M233 331L234 332L233 331z"/>
<path style="fill:#1c2d51;" d="M234 331L235 332L234 331z"/>
<path style="fill:#273e70;" d="M279 331L280 332L279 331z"/>
<path style="fill:#1c2d51;" d="M315 331L316 332L315 331z"/>
<path style="fill:#3859a1;" d="M315 332L316 333L315 332M278 333L279 334L278 333z"/>
<path style="fill:#1c2d51;" d="M277 334L278 335L277 334z"/>
<path style="fill:#273e70;" d="M294.667 334.333L295.333 334.667L294.667 334.333z"/>
<path style="fill:#1c2d51;" d="M316 334L317 335L316 334z"/>
<path style="fill:#3859a1;" d="M293 335L294 336L293 335z"/>
<path style="fill:#1c2d51;" d="M295 335L296 336L295 335z"/>
<path style="fill:#273e70;" d="M316 335L317 336L316 335M276 336L277 337L276 336z"/>
<path style="fill:#1c2d51;" d="M293 336L294 337L293 336z"/>
<path style="fill:#3859a1;" d="M316 336L317 337L316 336M292 337L293 338L292 337M296 337L297 338L296 337M275 338L276 339L275 338z"/>
<path style="fill:#273e70;" d="M296 338L297 339L296 338z"/>
<path style="fill:#1c2d51;" d="M317 338L318 339L317 338M274 339L275 340L274 339z"/>
<path style="fill:#273e70;" d="M291 339L292 340L291 339z"/>
<path style="fill:#3859a1;" d="M317 339L318 340L317 339M290 340L291 341L290 340z"/>
<path style="fill:#273e70;" d="M273 341L274 342L273 341z"/>
<path style="fill:#1c2d51;" d="M290 341L291 342L290 341z"/>
<path style="fill:#3859a1;" d="M297 341L298 342L297 341z"/>
<path style="fill:#1c2d51;" d="M318 341L319 342L318 341z"/>
<path style="fill:#3859a1;" d="M289 342L290 343L289 342z"/>
<path style="fill:#1c2d51;" d="M297 342L298 343L297 342z"/>
<path style="fill:#273e70;" d="M318 342L319 343L318 342z"/>
<path style="fill:#3859a1;" d="M272 343L273 344L272 343M318 343L319 344L318 343z"/>
<path style="fill:#1c2d51;" d="M271 344L272 345L271 344z"/>
<path style="fill:#273e70;" d="M288 344L289 345L288 344z"/>
<path style="fill:#3859a1;" d="M298 344L299 345L298 344z"/>
<path style="fill:#273e70;" d="M298 345L299 346L298 345z"/>
<path style="fill:#1c2d51;" d="M319 345L320 346L319 345z"/>
<path style="fill:#273e70;" d="M270 346L271 347L270 346z"/>
<path style="fill:#1c2d51;" d="M287 346L288 347L287 346M298 346L299 347L298 346z"/>
<path style="fill:#3859a1;" d="M319.333 346.667L319.667 347.333L319.333 346.667M286 347L287 348L286 347M269 348L270 349L269 348M299 348L300 349L299 348z"/>
<path style="fill:#1c2d51;" d="M268 349L269 350L268 349z"/>
<path style="fill:#273e70;" d="M285 349L286 350L285 349z"/>
<path style="fill:#1c2d51;" d="M299 349L300 350L299 349z"/>
<path style="fill:#3859a1;" d="M268 350L269 351L268 350z"/>
<path style="fill:#273e70;" d="M267 351L268 352L267 351z"/>
<path style="fill:#1c2d51;" d="M284 351L285 352L284 351z"/>
<path style="fill:#3859a1;" d="M300 351L301 352L300 351M283 352L284 353L283 352z"/>
<path style="fill:#273e70;" d="M300 352L301 353L300 352z"/>
<path style="fill:#3859a1;" d="M266 353L267 354L266 353M319 353L320 354L319 353z"/>
<path style="fill:#273e70;" d="M282 354L283 355L282 354z"/>
<path style="fill:#3859a1;" d="M301 354L302 355L301 354z"/>
<path style="fill:#273e70;" d="M319 354L320 355L319 354z"/>
<path style="fill:#3859a1;" d="M265 355L266 356L265 355z"/>
<path style="fill:#1c2d51;" d="M281 356L282 357L281 356z"/>
<path style="fill:#273e70;" d="M302 356L303 357L302 356M318 356L319 357L318 356z"/>
<path style="fill:#1c2d51;" d="M264 357L265 358L264 357z"/>
<path style="fill:#3859a1;" d="M280 357L281 358L280 357M303 357L304 358L303 357M317 357L318 358L317 357z"/>
<path style="fill:#273e70;" d="M264 358L265 359L264 358M304 358L305 359L304 358M316 358L317 359L316 358z"/>
<path style="fill:#3859a1;" d="M264.333 359.667L264.667 360.333L264.333 359.667z"/>
<path style="fill:#273e70;" d="M279 359L280 360L279 359z"/>
<path style="fill:#1c2d51;" d="M305 359L306 360L305 359z"/>
<path style="fill:#3859a1;" d="M306 359L307 360L306 359M314 359L315 360L314 359z"/>
<path style="fill:#1c2d51;" d="M315 359L316 360L315 359M308 360L309 361L308 360z"/>
<path style="fill:#273e70;" d="M309 360L310 361L309 360z"/>
<path style="fill:#3859a1;" d="M310 360L311 361L310 360z"/>
<path style="fill:#273e70;" d="M311 360L312 361L311 360z"/>
<path style="fill:#1c2d51;" d="M312 360L313 361L312 360M264 361L265 362L264 361M278 361L279 362L278 361z"/>
<path style="fill:#3859a1;" d="M277 362L278 363L277 362z"/>
<path style="fill:#273e70;" d="M265 363L266 364L265 363z"/>
<path style="fill:#3859a1;" d="M266 364L267 365L266 364M275 364L276 365L275 364z"/>
<path style="fill:#273e70;" d="M267 365L268 366L267 365M274 365L275 366L274 365z"/>
<path style="fill:#1c2d51;" d="M269 366L270 367L269 366z"/>
<path style="fill:#273e70;" d="M270.667 366.333L271.333 366.667L270.667 366.333z"/>
<path style="fill:#1c2d51;" d="M272 366L273 367L272 366z"/>
</svg>
